<svg xmlns="http://www.w3.org/2000/svg" width="640" height="280" viewBox="0 0 640 280">
<rect width="640" height="280" fill="#0d1117" rx="6" />
<text x="68" y="22" font-size="13" font-weight="600" fill="#e6edf3" font-family="ui-monospace, 'Cascadia Code', monospace">Safety indicators — develop</text>
<line x1="68" y1="224.0" x2="620" y2="224.0" stroke="#21262d" stroke-width="1" stroke-dasharray="3,3" />
<text x="63" y="228.0" text-anchor="end" fill="#8b949e" font-size="10" font-family="ui-monospace, 'Cascadia Code', monospace">0</text>
<line x1="68" y1="177.57142857142856" x2="620" y2="177.57142857142856" stroke="#21262d" stroke-width="1" stroke-dasharray="3,3" />
<text x="63" y="181.57142857142856" text-anchor="end" fill="#8b949e" font-size="10" font-family="ui-monospace, 'Cascadia Code', monospace">2</text>
<line x1="68" y1="131.14285714285714" x2="620" y2="131.14285714285714" stroke="#21262d" stroke-width="1" stroke-dasharray="3,3" />
<text x="63" y="135.14285714285714" text-anchor="end" fill="#8b949e" font-size="10" font-family="ui-monospace, 'Cascadia Code', monospace">4</text>
<line x1="68" y1="84.71428571428572" x2="620" y2="84.71428571428572" stroke="#21262d" stroke-width="1" stroke-dasharray="3,3" />
<text x="63" y="88.71428571428572" text-anchor="end" fill="#8b949e" font-size="10" font-family="ui-monospace, 'Cascadia Code', monospace">6</text>
<line x1="68" y1="42" x2="68" y2="224" stroke="#484f58" stroke-width="1" />
<line x1="68" y1="224" x2="620" y2="224" stroke="#484f58" stroke-width="1" />
<text x="14" y="133" fill="#8b949e" font-family="ui-monospace, 'Cascadia Code', monospace" font-size="10" text-anchor="middle" transform="rotate(-90 14 133)">count</text>
<line x1="344.0" y1="224" x2="344.0" y2="228" stroke="#484f58" stroke-width="1" />
<text x="344.0" y="240" text-anchor="middle" fill="#8b949e" font-size="10" font-family="ui-monospace, 'Cascadia Code', monospace">Sep 15</text>
<circle cx="344.0" cy="224.0" r="3" fill="#f85149" />
<circle cx="344.0" cy="200.78571428571428" r="3" fill="#d29922" />
<circle cx="344.0" cy="61.5" r="3" fill="#388bfd" />
<circle cx="344.0" cy="224.0" r="3" fill="#f85149" />
<rect x="68" y="255" width="14" height="3" fill="#f85149" rx="1" />
<text x="86" y="264" fill="#8b949e" font-size="10" font-family="ui-monospace, 'Cascadia Code', monospace">Goto count</text>
<rect x="166" y="255" width="14" height="3" fill="#d29922" rx="1" />
<text x="184" y="264" fill="#8b949e" font-size="10" font-family="ui-monospace, 'Cascadia Code', monospace">Void ptr count</text>
<rect x="292" y="255" width="14" height="3" fill="#388bfd" rx="1" />
<text x="310" y="264" fill="#8b949e" font-size="10" font-family="ui-monospace, 'Cascadia Code', monospace">Cast count</text>
<rect x="390" y="255" width="14" height="3" fill="#f85149" rx="1" />
<text x="408" y="264" fill="#8b949e" font-size="10" font-family="ui-monospace, 'Cascadia Code', monospace">Assert count</text>
</svg>