<svg xmlns="http://www.w3.org/2000/svg" width="640" height="280" viewBox="0 0 640 280">
<rect width="640" height="280" fill="#0d1117" rx="6" />
<text x="68" y="22" font-size="13" font-weight="600" fill="#e6edf3" font-family="ui-monospace, 'Cascadia Code', monospace">Test & rule counts — develop</text>
<line x1="68" y1="224.0" x2="620" y2="224.0" stroke="#21262d" stroke-width="1" stroke-dasharray="3,3" />
<text x="63" y="228.0" text-anchor="end" fill="#8b949e" font-size="10" font-family="ui-monospace, 'Cascadia Code', monospace">0</text>
<line x1="68" y1="203.15330339961514" x2="620" y2="203.15330339961514" stroke="#21262d" stroke-width="1" stroke-dasharray="3,3" />
<text x="63" y="207.15330339961514" text-anchor="end" fill="#8b949e" font-size="10" font-family="ui-monospace, 'Cascadia Code', monospace">200</text>
<line x1="68" y1="182.30660679923028" x2="620" y2="182.30660679923028" stroke="#21262d" stroke-width="1" stroke-dasharray="3,3" />
<text x="63" y="186.30660679923028" text-anchor="end" fill="#8b949e" font-size="10" font-family="ui-monospace, 'Cascadia Code', monospace">400</text>
<line x1="68" y1="161.45991019884542" x2="620" y2="161.45991019884542" stroke="#21262d" stroke-width="1" stroke-dasharray="3,3" />
<text x="63" y="165.45991019884542" text-anchor="end" fill="#8b949e" font-size="10" font-family="ui-monospace, 'Cascadia Code', monospace">600</text>
<line x1="68" y1="140.61321359846056" x2="620" y2="140.61321359846056" stroke="#21262d" stroke-width="1" stroke-dasharray="3,3" />
<text x="63" y="144.61321359846056" text-anchor="end" fill="#8b949e" font-size="10" font-family="ui-monospace, 'Cascadia Code', monospace">800</text>
<line x1="68" y1="119.76651699807569" x2="620" y2="119.76651699807569" stroke="#21262d" stroke-width="1" stroke-dasharray="3,3" />
<text x="63" y="123.76651699807569" text-anchor="end" fill="#8b949e" font-size="10" font-family="ui-monospace, 'Cascadia Code', monospace">1000</text>
<line x1="68" y1="98.91982039769081" x2="620" y2="98.91982039769081" stroke="#21262d" stroke-width="1" stroke-dasharray="3,3" />
<text x="63" y="102.91982039769081" text-anchor="end" fill="#8b949e" font-size="10" font-family="ui-monospace, 'Cascadia Code', monospace">1200</text>
<line x1="68" y1="78.07312379730595" x2="620" y2="78.07312379730595" stroke="#21262d" stroke-width="1" stroke-dasharray="3,3" />
<text x="63" y="82.07312379730595" text-anchor="end" fill="#8b949e" font-size="10" font-family="ui-monospace, 'Cascadia Code', monospace">1400</text>
<line x1="68" y1="57.226427196921094" x2="620" y2="57.226427196921094" stroke="#21262d" stroke-width="1" stroke-dasharray="3,3" />
<text x="63" y="61.226427196921094" text-anchor="end" fill="#8b949e" font-size="10" font-family="ui-monospace, 'Cascadia Code', monospace">1600</text>
<line x1="68" y1="42" x2="68" y2="224" stroke="#484f58" stroke-width="1" />
<line x1="68" y1="224" x2="620" y2="224" stroke="#484f58" stroke-width="1" />
<text x="14" y="133" fill="#8b949e" font-family="ui-monospace, 'Cascadia Code', monospace" font-size="10" text-anchor="middle" transform="rotate(-90 14 133)">count</text>
<line x1="344.0" y1="224" x2="344.0" y2="228" stroke="#484f58" stroke-width="1" />
<text x="344.0" y="240" text-anchor="middle" fill="#8b949e" font-size="10" font-family="ui-monospace, 'Cascadia Code', monospace">Oct 06</text>
<circle cx="344.0" cy="61.5" r="3" fill="#388bfd" />
<circle cx="344.0" cy="215.765554842848" r="3" fill="#3fb950" />
<rect x="68" y="255" width="14" height="3" fill="#388bfd" rx="1" />
<text x="86" y="264" fill="#8b949e" font-size="10" font-family="ui-monospace, 'Cascadia Code', monospace">Test count</text>
<rect x="166" y="255" width="14" height="3" fill="#3fb950" rx="1" />
<text x="184" y="264" fill="#8b949e" font-size="10" font-family="ui-monospace, 'Cascadia Code', monospace">Rule count</text>
</svg>