<svg xmlns="http://www.w3.org/2000/svg" width="640" height="280" viewBox="0 0 640 280">
<rect width="640" height="280" fill="#0d1117" rx="6" />
<text x="68" y="22" font-size="13" font-weight="600" fill="#e6edf3" font-family="ui-monospace, 'Cascadia Code', monospace">Cyclomatic complexity distribution — develop</text>
<line x1="68" y1="224.0" x2="620" y2="224.0" stroke="#21262d" stroke-width="1" stroke-dasharray="3,3" />
<text x="63" y="228.0" text-anchor="end" fill="#8b949e" font-size="10" font-family="ui-monospace, 'Cascadia Code', monospace">0</text>
<line x1="68" y1="183.375" x2="620" y2="183.375" stroke="#21262d" stroke-width="1" stroke-dasharray="3,3" />
<text x="63" y="187.375" text-anchor="end" fill="#8b949e" font-size="10" font-family="ui-monospace, 'Cascadia Code', monospace">2</text>
<line x1="68" y1="142.75" x2="620" y2="142.75" stroke="#21262d" stroke-width="1" stroke-dasharray="3,3" />
<text x="63" y="146.75" text-anchor="end" fill="#8b949e" font-size="10" font-family="ui-monospace, 'Cascadia Code', monospace">4</text>
<line x1="68" y1="102.12500000000001" x2="620" y2="102.12500000000001" stroke="#21262d" stroke-width="1" stroke-dasharray="3,3" />
<text x="63" y="106.12500000000001" text-anchor="end" fill="#8b949e" font-size="10" font-family="ui-monospace, 'Cascadia Code', monospace">6</text>
<line x1="68" y1="61.5" x2="620" y2="61.5" stroke="#21262d" stroke-width="1" stroke-dasharray="3,3" />
<text x="63" y="65.5" text-anchor="end" fill="#8b949e" font-size="10" font-family="ui-monospace, 'Cascadia Code', monospace">8</text>
<line x1="68" y1="42" x2="68" y2="224" stroke="#484f58" stroke-width="1" />
<line x1="68" y1="224" x2="620" y2="224" stroke="#484f58" stroke-width="1" />
<text x="14" y="133" fill="#8b949e" font-family="ui-monospace, 'Cascadia Code', monospace" font-size="10" text-anchor="middle" transform="rotate(-90 14 133)">functions</text>
<line x1="344.0" y1="224" x2="344.0" y2="228" stroke="#484f58" stroke-width="1" />
<text x="344.0" y="240" text-anchor="middle" fill="#8b949e" font-size="10" font-family="ui-monospace, 'Cascadia Code', monospace">Oct 05</text>
<polygon points="341.0,102.12500000000001 347.0,102.12500000000001 347.0,224.0 341.0,224.0" fill="#3fb950" opacity="0.45" stroke="none" />
<polygon points="341.0,61.5 347.0,61.5 347.0,102.12500000000001 341.0,102.12500000000001" fill="#d29922" opacity="0.45" stroke="none" />
<polygon points="341.0,61.5 347.0,61.5 347.0,61.5 341.0,61.5" fill="#f0883e" opacity="0.45" stroke="none" />
<polygon points="341.0,61.5 347.0,61.5 347.0,61.5 341.0,61.5" fill="#f85149" opacity="0.45" stroke="none" />
<circle cx="344.0" cy="102.12500000000001" r="3" fill="#3fb950" />
<circle cx="344.0" cy="61.5" r="3" fill="#d29922" />
<circle cx="344.0" cy="61.5" r="3" fill="#f0883e" />
<circle cx="344.0" cy="61.5" r="3" fill="#f85149" />
<rect x="68" y="255" width="14" height="3" fill="#3fb950" rx="1" />
<text x="86" y="264" fill="#8b949e" font-size="10" font-family="ui-monospace, 'Cascadia Code', monospace">V(G) 1-5</text>
<rect x="158" y="255" width="14" height="3" fill="#d29922" rx="1" />
<text x="176" y="264" fill="#8b949e" font-size="10" font-family="ui-monospace, 'Cascadia Code', monospace">V(G) 6-10</text>
<rect x="249" y="255" width="14" height="3" fill="#f0883e" rx="1" />
<text x="267" y="264" fill="#8b949e" font-size="10" font-family="ui-monospace, 'Cascadia Code', monospace">V(G) 11-15</text>
<rect x="347" y="255" width="14" height="3" fill="#f85149" rx="1" />
<text x="365" y="264" fill="#8b949e" font-size="10" font-family="ui-monospace, 'Cascadia Code', monospace">V(G) 16+</text>
</svg>