<svg xmlns="http://www.w3.org/2000/svg" width="640" height="280" viewBox="0 0 640 280">
<rect width="640" height="280" fill="#0d1117" rx="6" />
<text x="68" y="22" font-size="13" font-weight="600" fill="#e6edf3" font-family="ui-monospace, 'Cascadia Code', monospace">Cyclomatic complexity — develop</text>
<line x1="68" y1="224.0" x2="620" y2="224.0" stroke="#21262d" stroke-width="1" stroke-dasharray="3,3" />
<text x="63" y="228.0" text-anchor="end" fill="#8b949e" font-size="10" font-family="ui-monospace, 'Cascadia Code', monospace">0</text>
<line x1="68" y1="187.88888888888889" x2="620" y2="187.88888888888889" stroke="#21262d" stroke-width="1" stroke-dasharray="3,3" />
<text x="63" y="191.88888888888889" text-anchor="end" fill="#8b949e" font-size="10" font-family="ui-monospace, 'Cascadia Code', monospace">2</text>
<line x1="68" y1="151.77777777777777" x2="620" y2="151.77777777777777" stroke="#21262d" stroke-width="1" stroke-dasharray="3,3" />
<text x="63" y="155.77777777777777" text-anchor="end" fill="#8b949e" font-size="10" font-family="ui-monospace, 'Cascadia Code', monospace">4</text>
<line x1="68" y1="115.66666666666667" x2="620" y2="115.66666666666667" stroke="#21262d" stroke-width="1" stroke-dasharray="3,3" />
<text x="63" y="119.66666666666667" text-anchor="end" fill="#8b949e" font-size="10" font-family="ui-monospace, 'Cascadia Code', monospace">6</text>
<line x1="68" y1="79.55555555555557" x2="620" y2="79.55555555555557" stroke="#21262d" stroke-width="1" stroke-dasharray="3,3" />
<text x="63" y="83.55555555555557" text-anchor="end" fill="#8b949e" font-size="10" font-family="ui-monospace, 'Cascadia Code', monospace">8</text>
<line x1="68" y1="43.44444444444443" x2="620" y2="43.44444444444443" stroke="#21262d" stroke-width="1" stroke-dasharray="3,3" />
<text x="63" y="47.44444444444443" text-anchor="end" fill="#8b949e" font-size="10" font-family="ui-monospace, 'Cascadia Code', monospace">10</text>
<line x1="68" y1="42" x2="68" y2="224" stroke="#484f58" stroke-width="1" />
<line x1="68" y1="224" x2="620" y2="224" stroke="#484f58" stroke-width="1" />
<text x="14" y="133" fill="#8b949e" font-family="ui-monospace, 'Cascadia Code', monospace" font-size="10" text-anchor="middle" transform="rotate(-90 14 133)">value</text>
<line x1="344.0" y1="224" x2="344.0" y2="228" stroke="#484f58" stroke-width="1" />
<text x="344.0" y="240" text-anchor="middle" fill="#8b949e" font-size="10" font-family="ui-monospace, 'Cascadia Code', monospace">Sep 15</text>
<circle cx="344.0" cy="61.5" r="3" fill="#f85149" />
<circle cx="344.0" cy="162.97222222222223" r="3" fill="#d29922" />
<circle cx="344.0" cy="187.88888888888889" r="3" fill="#388bfd" />
<rect x="68" y="255" width="14" height="3" fill="#f85149" rx="1" />
<text x="86" y="264" fill="#8b949e" font-size="10" font-family="ui-monospace, 'Cascadia Code', monospace">CC max</text>
<rect x="158" y="255" width="14" height="3" fill="#d29922" rx="1" />
<text x="176" y="264" fill="#8b949e" font-size="10" font-family="ui-monospace, 'Cascadia Code', monospace">CC avg</text>
<rect x="248" y="255" width="14" height="3" fill="#388bfd" rx="1" />
<text x="266" y="264" fill="#8b949e" font-size="10" font-family="ui-monospace, 'Cascadia Code', monospace">Nesting max</text>
</svg>