<svg xmlns="http://www.w3.org/2000/svg" width="640" height="280" viewBox="0 0 640 280">
<rect width="640" height="280" fill="#0d1117" rx="6" />
<text x="68" y="22" font-size="13" font-weight="600" fill="#e6edf3" font-family="ui-monospace, 'Cascadia Code', monospace">Line churn per commit — develop</text>
<line x1="68" y1="224.0" x2="620" y2="224.0" stroke="#21262d" stroke-width="1" stroke-dasharray="3,3" />
<text x="63" y="228.0" text-anchor="end" fill="#8b949e" font-size="10" font-family="ui-monospace, 'Cascadia Code', monospace">0</text>
<line x1="68" y1="202.8961038961039" x2="620" y2="202.8961038961039" stroke="#21262d" stroke-width="1" stroke-dasharray="3,3" />
<text x="63" y="206.8961038961039" text-anchor="end" fill="#8b949e" font-size="10" font-family="ui-monospace, 'Cascadia Code', monospace">20</text>
<line x1="68" y1="181.7922077922078" x2="620" y2="181.7922077922078" stroke="#21262d" stroke-width="1" stroke-dasharray="3,3" />
<text x="63" y="185.7922077922078" text-anchor="end" fill="#8b949e" font-size="10" font-family="ui-monospace, 'Cascadia Code', monospace">40</text>
<line x1="68" y1="160.68831168831167" x2="620" y2="160.68831168831167" stroke="#21262d" stroke-width="1" stroke-dasharray="3,3" />
<text x="63" y="164.68831168831167" text-anchor="end" fill="#8b949e" font-size="10" font-family="ui-monospace, 'Cascadia Code', monospace">60</text>
<line x1="68" y1="139.58441558441558" x2="620" y2="139.58441558441558" stroke="#21262d" stroke-width="1" stroke-dasharray="3,3" />
<text x="63" y="143.58441558441558" text-anchor="end" fill="#8b949e" font-size="10" font-family="ui-monospace, 'Cascadia Code', monospace">80</text>
<line x1="68" y1="118.48051948051948" x2="620" y2="118.48051948051948" stroke="#21262d" stroke-width="1" stroke-dasharray="3,3" />
<text x="63" y="122.48051948051948" text-anchor="end" fill="#8b949e" font-size="10" font-family="ui-monospace, 'Cascadia Code', monospace">100</text>
<line x1="68" y1="97.37662337662337" x2="620" y2="97.37662337662337" stroke="#21262d" stroke-width="1" stroke-dasharray="3,3" />
<text x="63" y="101.37662337662337" text-anchor="end" fill="#8b949e" font-size="10" font-family="ui-monospace, 'Cascadia Code', monospace">120</text>
<line x1="68" y1="76.27272727272728" x2="620" y2="76.27272727272728" stroke="#21262d" stroke-width="1" stroke-dasharray="3,3" />
<text x="63" y="80.27272727272728" text-anchor="end" fill="#8b949e" font-size="10" font-family="ui-monospace, 'Cascadia Code', monospace">140</text>
<line x1="68" y1="55.16883116883116" x2="620" y2="55.16883116883116" stroke="#21262d" stroke-width="1" stroke-dasharray="3,3" />
<text x="63" y="59.16883116883116" text-anchor="end" fill="#8b949e" font-size="10" font-family="ui-monospace, 'Cascadia Code', monospace">160</text>
<line x1="68" y1="42" x2="68" y2="224" stroke="#484f58" stroke-width="1" />
<line x1="68" y1="224" x2="620" y2="224" stroke="#484f58" stroke-width="1" />
<text x="14" y="133" fill="#8b949e" font-family="ui-monospace, 'Cascadia Code', monospace" font-size="10" text-anchor="middle" transform="rotate(-90 14 133)">lines</text>
<line x1="344.0" y1="224" x2="344.0" y2="228" stroke="#484f58" stroke-width="1" />
<text x="344.0" y="240" text-anchor="middle" fill="#8b949e" font-size="10" font-family="ui-monospace, 'Cascadia Code', monospace">Sep 29</text>
<circle cx="344.0" cy="61.5" r="3" fill="#3fb950" />
<circle cx="344.0" cy="152.24675324675326" r="3" fill="#f85149" />
<rect x="68" y="255" width="14" height="3" fill="#3fb950" rx="1" />
<text x="86" y="264" fill="#8b949e" font-size="10" font-family="ui-monospace, 'Cascadia Code', monospace">Lines added</text>
<rect x="173" y="255" width="14" height="3" fill="#f85149" rx="1" />
<text x="191" y="264" fill="#8b949e" font-size="10" font-family="ui-monospace, 'Cascadia Code', monospace">Lines deleted</text>
</svg>