<svg xmlns="http://www.w3.org/2000/svg" width="640" height="280" viewBox="0 0 640 280">
<rect width="640" height="280" fill="#0d1117" rx="6" />
<text x="68" y="22" font-size="13" font-weight="600" fill="#e6edf3" font-family="ui-monospace, 'Cascadia Code', monospace">Comment & whitespace ratios — develop</text>
<line x1="68" y1="224.0" x2="620" y2="224.0" stroke="#21262d" stroke-width="1" stroke-dasharray="3,3" />
<text x="63" y="228.0" text-anchor="end" fill="#8b949e" font-size="10" font-family="ui-monospace, 'Cascadia Code', monospace">0.000</text>
<line x1="68" y1="201.14486638537272" x2="620" y2="201.14486638537272" stroke="#21262d" stroke-width="1" stroke-dasharray="3,3" />
<text x="63" y="205.14486638537272" text-anchor="end" fill="#8b949e" font-size="10" font-family="ui-monospace, 'Cascadia Code', monospace">0.020</text>
<line x1="68" y1="178.28973277074542" x2="620" y2="178.28973277074542" stroke="#21262d" stroke-width="1" stroke-dasharray="3,3" />
<text x="63" y="182.28973277074542" text-anchor="end" fill="#8b949e" font-size="10" font-family="ui-monospace, 'Cascadia Code', monospace">0.040</text>
<line x1="68" y1="155.43459915611814" x2="620" y2="155.43459915611814" stroke="#21262d" stroke-width="1" stroke-dasharray="3,3" />
<text x="63" y="159.43459915611814" text-anchor="end" fill="#8b949e" font-size="10" font-family="ui-monospace, 'Cascadia Code', monospace">0.060</text>
<line x1="68" y1="132.57946554149083" x2="620" y2="132.57946554149083" stroke="#21262d" stroke-width="1" stroke-dasharray="3,3" />
<text x="63" y="136.57946554149083" text-anchor="end" fill="#8b949e" font-size="10" font-family="ui-monospace, 'Cascadia Code', monospace">0.080</text>
<line x1="68" y1="109.72433192686356" x2="620" y2="109.72433192686356" stroke="#21262d" stroke-width="1" stroke-dasharray="3,3" />
<text x="63" y="113.72433192686356" text-anchor="end" fill="#8b949e" font-size="10" font-family="ui-monospace, 'Cascadia Code', monospace">0.100</text>
<line x1="68" y1="86.86919831223628" x2="620" y2="86.86919831223628" stroke="#21262d" stroke-width="1" stroke-dasharray="3,3" />
<text x="63" y="90.86919831223628" text-anchor="end" fill="#8b949e" font-size="10" font-family="ui-monospace, 'Cascadia Code', monospace">0.120</text>
<line x1="68" y1="64.01406469760897" x2="620" y2="64.01406469760897" stroke="#21262d" stroke-width="1" stroke-dasharray="3,3" />
<text x="63" y="68.01406469760897" text-anchor="end" fill="#8b949e" font-size="10" font-family="ui-monospace, 'Cascadia Code', monospace">0.140</text>
<line x1="68" y1="42" x2="68" y2="224" stroke="#484f58" stroke-width="1" />
<line x1="68" y1="224" x2="620" y2="224" stroke="#484f58" stroke-width="1" />
<text x="14" y="133" fill="#8b949e" font-family="ui-monospace, 'Cascadia Code', monospace" font-size="10" text-anchor="middle" transform="rotate(-90 14 133)">ratio</text>
<line x1="344.0" y1="224" x2="344.0" y2="228" stroke="#484f58" stroke-width="1" />
<text x="344.0" y="240" text-anchor="middle" fill="#8b949e" font-size="10" font-family="ui-monospace, 'Cascadia Code', monospace">Sep 15</text>
<circle cx="344.0" cy="132.57946554149083" r="3" fill="#bc8cff" />
<circle cx="344.0" cy="61.5" r="3" fill="#39d353" />
<rect x="68" y="255" width="14" height="3" fill="#bc8cff" rx="1" />
<text x="86" y="264" fill="#8b949e" font-size="10" font-family="ui-monospace, 'Cascadia Code', monospace">Comment ratio</text>
<rect x="187" y="255" width="14" height="3" fill="#39d353" rx="1" />
<text x="205" y="264" fill="#8b949e" font-size="10" font-family="ui-monospace, 'Cascadia Code', monospace">Whitespace ratio</text>
</svg>